<?xml version="1.0" encoding="UTF-8"?>
<svg width="735" height="725" version="1.1" viewBox="0 0 735 725" xmlns="http://www.w3.org/2000/svg">
 <path d="m214.67 535.63c-10.31-2.2088-14.326-12.024-19.828-19.71-6.6389-11.079-20.577-10.026-31.458-12.681-11.031-4.6551-16.353-19.258-11.399-30.167 3.5271-8.8472 3.8946-18.297-0.63514-26.827-4.3901-10.696 1.0287-23.96 11.689-28.457 14.156-8.4165 27.71-19.012 35.72-33.636 5.4458-13.468 11.399-27.139 11.483-41.908-7.9851-7.8203-16.19-16.585-15.773-28.557 0.0108-21.679-0.63026-43.727 0.53231-65.234 2.0346-5.4688 5.4034-13.387 12.431-9.2254 8.3705 8.5923 17.509 16.556 23.425 27.156 6.7067-1.5343 17.323 3.7034 21.023-3.0394 5.4295-9.5032 11.278-19.06 19.556-26.359 11.014-0.12211 8.8139 13.854 10.599 21.433 0.86271 18.394 2.0508 36.746 5.8343 54.816-0.87455 11.278-5.8084 21.997-15.555 28.202-2.339 5.4399 0.79501 13.469 1.716 19.718 5.9986 27.23 22.585 49.857 34.664 74.485 2.4493 8.7612 4.6828 17.53 1.7366 26.472-4.0408 9.7232-9.4454 19.087-9.9804 29.976-1.7484 12.708-4.1269 28.821-18.439 33.024-13.17 5.5676-28.552-3.3106-41.637 3.8799-8.2043 3.678-16.309 11.628-25.705 6.6386zm17.589-5.7462c8.1165-6.0159 17.665-8.3972 27.65-7.2748 7.4864-0.35136 2.0368-13.75 3.93-19.743 0.77076-19.475-2.2615-38.839-2.8218-58.294 4.7812 25.828 3.3643 52.483 7.1801 78.5 9.8432 0.87489 19.531-3.7837 24.212-12.612 5.3185-14.211 4.7343-30.372 3.1064-45.274-4.2793-17.854-10.63-35.626-14.304-53.347 2.3897 2.8198 4.7353 14.053 7.108 20.114 3.6558 13.124 9.3252 25.95 11.648 39.286 7.0367-3.0277 6.8399-12.696 6.4383-19.402 0.65528-15.42-9.8005-28.49-15.48-42.264-6.7598-13.257-13.184-27.06-17.958-40.951-2.2606-8.0891-4.3064-16.382-5.0418-24.894-5.7843-5.3038 8.4067-6.3327 9.6468-11.844 11.41-9.8287 6.9155-25.952 4.8731-38.767-3.2092-17.468 1.0972-36.297-5.9216-52.881-5.6199-4.4441-10.629 5.5626-13.768 9.5537-2.9688 5.5226-11.504 13.777-8.3553 18.908 4.2934 2.4644-10.717-1.5277-14.552-0.10483-8.421 2.1593-13.16-2.4659-16.506-9.6576-6.6632-6.5292-12.24-18.003-23.055-16.862-7.2364 17.412-3.0664 37.011-3.7605 55.413 0.55567 12.006-2.4012 26.709 9.0378 34.692 5.8993 4.8752 10.5 11.917 7.3516 19.726-2.7864 15.92-9.7425 31.418-19.135 44.561-9.2428 11.587-22.208 18.755-33.719 27.778-6.3152 9.2104-4.8142 20.983-0.79232 30.83 7.2519-0.58372 11.481-9.1596 17.534-12.914 8.1535-8.0654 15.131-19.802 22.987-26.594-5.3051 11.207-16.083 21.489-23.768 32.121-6.8632 9.8284-19.049 16.747-19.983 29.624-3.2568 11.082 4.9316 25.059 17.425 23.768 9.9879-0.0684 18.484 4.8678 25.768 11.262 6.7451 0.33055 4.8911-11.837 8.0708-16.689 4.3076-14.81 7.6156-29.893 11.847-44.726 1.2504 6.3908-3.1863 14.357-4.119 21.353-3.5244 16.532-9.8123 32.61-10.327 49.637 3.6464 9.1993 14.815 17.128 23.966 10.055 1.1957-0.6951 2.3914-1.3902 3.587-2.0853zm-14.792-2.6922c-8.503-2.9944-8.7665-10.848-0.79959-2.443 6.4132 2.464 13.342 4.4673 2.5537 3.2482l-1.1229-0.51546zm-55.565-37.211c-5.188-2.5342-1.8674-20.574-1.262-12.317-0.77497 6.0656 1.2047 12.314 6.827 15.363-3.1418 0.55856-4.0599-0.29094-5.565-3.0469zm-2.5403-52.472c-0.5308-14.448 3.0667 6.1492 0.0419 0.16684zm2.1696-8.7294c4.6462-6.1406-2.2542 6.38 0 0zm97.102-5.3735c-1.5058-8.6269 0.104-13.798 0.7816-1.6562 0.24341 0.39268 0.47309 3.6726-0.7816 1.6562zm-49.667-26.392c3.858 0.60015 0.18131-0.20046 0 0zm23.25-52.203c-11.132-3.9595 5.7325-0.82525 10-1.597 12.99-1.8454 4.6121 4.553-3.3599 2.6981-2.2967 0.15639-4.4332-0.60463-6.6401-1.1012zm20.805-23.172c-2.7748-6.3761 8.3987 0.86801 0.55079 0.66367zm-52.431-5.1048c-1.9476-10.982 1.082-7.3511 0.94833 1.3001-0.64121 1.0958-0.62535-0.89906-0.94833-1.3001zm27.679-0.96188c-4.6039-4.1204-6.6257-12.122-3.6907-17.936 2.741-6.96 10.794-6.6731 14.78-0.82891-7.2692-2.1749-3.5025 0.33482-2.892 8.5156-2.9802 11.637 8.0137 1.2348-0.10042 11.058-1.8873 1.2017-6.3441 1.2766-8.0969-0.80803zm35.245-1.0942c-6.4219-5.8679-6.2968-17.312 0.86463-22.474 6.7895-1.5191 13.284 10.321 5.5896 3.0683 1.754 3.46-0.58207 14.977 1.7837 18 6.047-8.7592-0.74016 9.4671-7.5169 2.1263zm-61.027-29.371c-1.1647-11.061 0.36868-22.853 0.23808-34.194 4.5473-4.9344 9.2449 7.2111 13.444 9.8359 4.2124 4.7991 9.9924 14.752-0.0318 15.732-4.7381 0.92367-9.5132 11.163-13.65 8.6261zm69.979-7.9092c-6.7146-2.849-14.26-7.0856-8.0314-14.753 3.4223-3.7724 5.9443-15.243 10.614-13.152 2.5563 9.7416 1.6118 19.822 1.9349 29.78-1.7252-9e-3 -3.0335-1.1609-4.5177-1.8746zm170.92 171.25c-6.9928-4.1744-14.143-7.8619-22.504-7.6681-3.8458-9.6886-1.237-21.064-2.4826-31.432-0.21971-7.7599-0.43942-15.52-0.65913-23.28-3.6917 2.7608-0.9431 12.965-2.5249 18.664-0.55175 11.443-1.0224 22.89-1.5431 34.335-5.7153 4.7596-15.243 2.715-20.844-0.68083-12.113-10.087-13.318-27.771-10.891-42.387 2.2496-23.276 10.929-45.996 14.746-68.547-3.3768 6.0185-6.6399 15.8-9.225 23.513-3.6926 14.349-9.0645 28.055-11.222 42.81-3.1587 1.1693-7.0376-9.7338-9.0563-13.963-5.8384-20.12 8.1314-38.122 15.631-55.786 11.292-19.345 15.984-41.518 18.307-63.568-16.05-5.8679-22.38-25.303-17.652-40.852 2.3505-16.868-0.27205-34.357 1.5191-51.16 1.1748-8.2876 7.8824-10.745 13.17-3.7745 6.8954 6.8388 13.102 14.225 18.07 22.595 7.3687-2.7643 16.528 0.49213 23.127-2.2347 6.8347-9.4027 9.9706-21.155 20.114-27.954 7.5008-1.0056 8.2571 10.475 9.3318 16.193 1.9805 17.191 0.2518 34.594 2.8688 51.715 1.7252 12.908-3.333 26.859-14.931 33.582-0.19898 19.059 10.315 35.916 21.258 50.677 9.0623 10.64 19.611 19.836 32.733 25.079 9.1636 5.3033 14.888 16.987 11.069 27.341-1.628 6.2444-1.0407 13.691-2.384 19.402-18.007-16.682-36.672-33.791-49.444-55.232 3.3592 13.037 13.127 23.937 21.103 34.733 10.606 11.66 23.062 21.784 31.897 34.945 2.1359 14.826-14.653 22.053-26.932 22.998-8.4355-1.0545-12.242 9.5155-17.826 11.206-8.511-11.472-11.618-26.271-16.584-39.64-0.32935 15.791 8.8938 31.106 12.513 46.665-6.1555 6.0405-11.297 13.906-20.816 13.893-3.7013 1.4198-6.8193-0.24699-9.9357-2.1878zm-11.37-183.91c7.9076-4.4082-10.565-1.2089-13.953-2.0066-8.0327 2.4712 12.406 5.5435 13.953 2.0066zm-37.856-14.724c-6.5843-11.57-6.7213-26.052-4.7212-38.593-5.7164 5.3746-3.715 16.077-4.7566 23.953 2.0446 6.4928 4.516 15.821 11.447 17.89-0.65634-1.0833-1.3127-2.1667-1.969-3.25zm12.463-18.471c3.3594-6.8417 1.1021-20.046-8.4249-19.389-6.5368 5.8166-6.9356 17.882 0.26796 23.08 3.8809-0.29259 7.4702 1.6613 8.157-3.6908zm34.894-0.74642c2.617-6.4501 2.7358-15.04-3.2549-19.694-9.0488-1.0504-12.191 10.374-9.7286 17.358 0.48682 6.1214 12.006 8.8893 12.984 2.3353zm-40.112-35.758c4.7888-4.9826-3.7668-12.387-5.2055-18.062-4.3311-10.152-7.838 0.88239-7.2878 6.8774 0.67771 5.8376-1.1777 17.822 3.1126 19.636 3.1788-2.7316 5.7565-6.3265 9.3806-8.4518zm64.283-8.9528c-0.57936-6.0336 0.57563-15.261-4.2936-18.821-5.9157 1.1953-8.1601 9.8677-11.351 14.82-7.1301 8.2111 4.7954 8.5498 8.8263 13.178 6.9775 8.3787 8.6436-1.1961 6.887-7.7289l-0.0583-1.2342zm-311.22 224.18c-0.49088-4.7445 3.4702 3.6729 0 0zm-19.5-8.059c3.858 0.60015 0.18131-0.20046 0 0zm1-8.941c2.7509-4.6748 1.4948 3.9753 0 0zm-9-13.941c2.8786-6.3494 2.5824 4.4389 0 0zm-11.264-4.6568c-1.5935-9.487 6.3653 3.494 0 0zm53.353-5.4022c4.8098-8.3452-11.208-11.065-5.8514-13.597 7.5046-0.18129 4.5723-19.397 7.7626-11.932-2.3189 6.5 8.9652 14.657 7.309 14.118-8.5773-0.0481-7.0094 10.044-9.104 15.91-0.0387-1.5-0.0774-3-0.11612-4.5zm-50.422-11.667c-0.6909-8.9119 8.4407 1.022 0 0zm-7.3226-7.8255c0.56379-6.4471 7.9883-2.6554 8.1559-8.0082-4.7332 2.5974-2.8822-10.333-8.6549-3.0114-5.307 2.695-4.2591 8.9555-5.1816-1.2909 0.40504-16.926 5.0778-36.72 21.5-44.851 11.363-5.047 27.729-6.8293 35.04 5.4896 4.5899 7.5965 3.9063 19.043-4.6623 23.75-6.3286 4.7595-15.533 2.2916-19.472-4.4944-1.3902-7.9289-9.5905-6.1954-12.029 1.0924-4.8512 8.0494-5.4095 18.12-4.58 27.316-4.5712 3.6283-5.9833-2.0742-6.4498 4.0701-2.2899-1.1447-6.2802 6.534-3.6669-0.0619zm1.6559-17.499c-5.7069-6.8932-3.2588-0.0166-1 2.4916 1.6195-0.11348 0.85943-1.5536 1-2.4916zm4-1.0674c-2.5546-4.6507-2.8909 6.7288 0 0zm40.461-11.564c7.1858-4.9574 7.3151-16.947 0.67159-22.844 0.21278-5.668-16.635-5.7808-9.8514-4.5488 8.9512 5.5624 13.535 19.418 5.0056 27.467-1.4024 1.2939 4.2034 0.31686 4.1741-0.0743zm-48.461 27.23c4.8308-4.5244 2.8883 1.9586 0 0zm0.5-3.607c-0.49088-4.7445 3.4702 3.6729 0 0zm403.57-12.323c-11.284-3.3378 2.0792-9.1114 6.4316-12.421 9.8796-9.8842 18.262-20.989 23.144-34.183 2.3614-5.7292 2.5728-11.688 5.856-16.073 4.6192-1.7067-6.3238 11.148 3.4733 9.9933 0.17226-2.0966-5.6801-8.5032 0.27668-3.2676 2.3896-9.3038 3.4943 4.8191 5.9446 1.2743 2.1654 4.3312-2.748 12.261-4.9191 17.5-4.8805 14.652-16.09 26.351-26.879 36.88-4.4088 3.025-8.8623 3.7118-13.328 0.29736zm41.932-50.795c-3.5639 1.5987-0.87938 0.10675 0 0zm3.6384-8.382c1.873-4.7182 2.266 4.7457 0 0zm-406.64-1.4343c-14.548-3.0616-21.934-21.301-14.118-33.698 4.1038-9.9825 16.946-13.005 26.625-10.078-9.7938 1.8248-17.054 10.673-15.5 20.751 1.7613 10.196 13.027 14.704 22.322 11.493 6.8494-2.782 11.651-8.9103 6.2042 2.0093-4.5653 9.5288-15.948 12.39-25.532 9.5225zm402.64-9.5657c0.76683-7.824 7.6591 6.7696 0 0zm-5.6384-19.5c2.2897-4.3358 2.4948 4.1387 0 0zm-373-6c2.2897-4.3358 2.4948 4.1387 0 0zm333-6.059c3.858 0.60015 0.18131-0.20046 0 0zm44.229-0.12848c5.4142-7.3163 2.4165 6.1752 0 0zm-41.229-21.812c2.7509-4.6748 1.4948 3.9753 0 0zm9.6317-3.9017c-4.632-7.591-4.4029-7.6309-0.63171-15.71-0.18406-13.657 2.0641-5.0315 2.196 3.496 5.8428 5.9065 5.084 3.4218 0.78865 10.949 0.48222 3.5528-2.5967 8.0082-2.3529 1.2649zm-98.632-45.157c3.858 0.60015 0.18131-0.20046 0 0zm15.895-7.7102c6.2653-5.091 3.8606-16.283-0.26375-12.683 7.1071-1.5317-2.815-5.0365-3.3567-4.7974 7.6309-3.7395-1.7906-1.3163-5.1205-5.9216-6.0108 2.6711-5.0166 2.6598-10.101 1.8287-6.3739 1.4873-10.185 3.2014-11.348 9.6704-3.5865 5.7036 5.8853 19.485-1.7644 9.2818-4.5379-9.6171-1.7575-23.83 9.5306-27.423 7.2231-3.3556 16.764-2.2675 22.055 4.2681 7.5489 7.797 8.221 22.488-1.1178 28.942-3.6427 2.6357 1.2435-2.6583 1.4862-3.166z" stroke-width="1.5" style="paint-order:stroke fill markers"/>
</svg>
